<svg xmlns="http://www.w3.org/2000/svg" xmlns:xlink="http://www.w3.org/1999/xlink" fill="none" version="1.1" width="16" height="16" viewBox="0 0 16 16"><clipPath id="master_svg_0"><rect x="0" y="0" width="16" height="16" rx="0"/></clipPath><g clip-path="url(#master_svg_0)" style="mix-blend-mode:passthrough"><g><g style="mix-blend-mode:passthrough"><path d="M6.14645,12.8536L3.146447,9.85355L3.853553,9.14645L6.85355,12.14645L6.14645,12.8536ZM6.5,13L3,13L3,9.29289L10.5,1.7928929999999998L14.2071,5.5L6.70711,13L6.5,13ZM6.5,12L6.5,12.5L6.14645,12.14645L13.14645,5.14645L13.5,5.5L13.14645,5.85355L10.14645,2.853553L10.5,2.5L10.85355,2.853553L3.853553,9.85355L3.5,9.5L4,9.5L4,12.5L3.5,12.5L3.5,12L6.5,12Z" fill="#000000" fill-opacity="1"/></g></g></g></svg>