<svg xmlns="http://www.w3.org/2000/svg" xmlns:xlink="http://www.w3.org/1999/xlink" fill="none" version="1.1" width="16" height="16" viewBox="0 0 16 16"><clipPath id="master_svg_0"><rect x="0" y="0" width="16" height="16" rx="0"/></clipPath><g clip-path="url(#master_svg_0)" style="mix-blend-mode:passthrough"><g><g style="mix-blend-mode:passthrough"><path d="M8,3.5L8,7.5L7,7.5L7,3.5L8,3.5ZM8,7.5L8,12L3,12L3,7.5L3,3L7.5,3L12,3L12,8L7.5,8L3.5,8L3.5,7L7.5,7L11.5,7L11.5,7.5L11,7.5L11,3.5L11.5,3.5L11.5,4L7.5,4L3.5,4L3.5,3.5L4,3.5L4,7.5L4,11.5L3.5,11.5L3.5,11L7.5,11L7.5,11.5L7,11.5L7,7.5L8,7.5Z" fill="#000000" fill-opacity="1"/></g></g></g></svg>