<svg xmlns="http://www.w3.org/2000/svg" xmlns:xlink="http://www.w3.org/1999/xlink" fill="none" version="1.1" width="16" height="16" viewBox="0 0 16 16"><clipPath id="master_svg_0"><rect x="0" y="0" width="16" height="16" rx="0"/></clipPath><g clip-path="url(#master_svg_0)" style="mix-blend-mode:passthrough"><rect x="0" y="0" width="16" height="16" rx="0" fill="none" fill-opacity="1"/><g><g style="mix-blend-mode:passthrough"><path d="M12.5,5L9,5L9,1.5L10,1.5L10,4.5L9.5,4.5L9.5,4L12.5,4L12.5,5ZM12.5,15L3,15L3,1L9.70711,1L13,4.29289L13,15L12.5,15ZM12.5,14L12.5,14.5L12,14.5L12,4.5L12.5,4.5L12.14645,4.85355L9.14645,1.853553L9.5,1.5L9.5,2L3.5,2L3.5,1.5L4,1.5L4,14.5L3.5,14.5L3.5,14L12.5,14Z" fill="#000000" fill-opacity="1"/></g></g></g></svg>