<svg xmlns="http://www.w3.org/2000/svg" xmlns:xlink="http://www.w3.org/1999/xlink" fill="none" version="1.1" width="16" height="16" viewBox="0 0 16 16"><clipPath id="master_svg_0"><rect x="0" y="0" width="16" height="16" rx="0"/></clipPath><g clip-path="url(#master_svg_0)" style="mix-blend-mode:passthrough"><g><g style="mix-blend-mode:passthrough"><g><g style="mix-blend-mode:passthrough"><path d="M2.5,4.5L2.5,7.5L2.5,10.5L2.5,13.5L5.5,13.5L5.5,10.5L5.5,7.5L5.5,4.5L5.5,1.5L2.5,1.5L2.5,4.5Z" fill="#FFFFFF" fill-opacity="1"/><path d="M5.5,11L2.5,11L2.5,10L5.5,10L5.5,11ZM2.5,7L5.5,7L5.5,8L2.5,8L2.5,7ZM5.5,5L2.5,5L2.5,4L5.5,4L5.5,5ZM6,10.5L6,14L2,14L2,10.5L2,7.5L2,4.5L2,1L6,1L6,4.5L6,7.5L6,10.5ZM5,10.5L5,7.5L5,4.5L5,1.5L5.5,1.5L5.5,2L2.5,2L2.5,1.5L3,1.5L3,4.5L3,7.5L3,10.5L3,13.5L2.5,13.5L2.5,13L5.5,13L5.5,13.5L5,13.5L5,10.5Z" fill="#000000" fill-opacity="1"/></g><g style="mix-blend-mode:passthrough"><path d="M10.32843017578125,9.55023193359375L10.32843017578125,12.55023193359375L13.32843017578125,12.55023193359375L13.32843017578125,9.55023193359375L13.32843017578125,6.55023193359375L13.32843017578125,3.55023193359375L10.32843017578125,3.55023193359375L10.32843017578125,6.55023193359375L10.32843017578125,9.55023193359375Z" transform="matrix(0.7071067690849304,0.7071067690849304,-0.7071067690849304,0.7071067690849304,5.535520316530892,-6.2634639897878515)" fill="#FFFFFF" fill-opacity="1"/><path d="M10.32843017578125,9.05023193359375L13.32843017578125,9.05023193359375L13.32843017578125,10.05023193359375L10.32843017578125,10.05023193359375L10.32843017578125,9.05023193359375ZM13.32843017578125,7.05023193359375L10.32843017578125,7.05023193359375L10.32843017578125,6.05023193359375L13.32843017578125,6.05023193359375L13.32843017578125,7.05023193359375ZM10.82843017578125,9.55023193359375L10.82843017578125,12.55023193359375L10.32843017578125,12.55023193359375L10.32843017578125,12.05023193359375L13.32843017578125,12.05023193359375L13.32843017578125,12.55023193359375L12.82843017578125,12.55023193359375L12.82843017578125,9.55023193359375L12.82843017578125,6.55023193359375L12.82843017578125,3.55023193359375L13.32843017578125,3.55023193359375L13.32843017578125,4.05023193359375L10.32843017578125,4.05023193359375L10.32843017578125,3.55023193359375L10.82843017578125,3.55023193359375L10.82843017578125,6.55023193359375L10.82843017578125,9.55023193359375ZM9.82843017578125,9.55023193359375L9.82843017578125,6.55023193359375L9.82843017578125,3.05023193359375L13.82843017578125,3.05023193359375L13.82843017578125,6.55023193359375L13.82843017578125,9.55023193359375L13.82843017578125,13.05023193359375L9.82843017578125,13.05023193359375L9.82843017578125,9.55023193359375Z" transform="matrix(0.7071067690849304,0.7071067690849304,-0.7071067690849304,0.7071067690849304,5.535520316530892,-6.2634639897878515)" fill="#000000" fill-opacity="1"/></g><g style="mix-blend-mode:passthrough"><path d="M14.5,19.5L14.5,22.5L17.5,22.5L17.5,19.5L17.5,16.5L17.5,13.5L17.5,10.5L14.5,10.5L14.5,13.5L14.5,16.5L14.5,19.5Z" transform="matrix(0,0.9999999403953552,-0.9999999403953552,0,24.99999937415123,-3.9999991357326508)" fill="#FFFFFF" fill-opacity="1"/><path d="M17.5,20L14.5,20L14.5,19L17.5,19L17.5,20ZM14.5,16L17.5,16L17.5,17L14.5,17L14.5,16ZM17.5,14L14.5,14L14.5,13L17.5,13L17.5,14ZM18,19.5L18,23L14,23L14,19.5L14,16.5L14,13.5L14,10L18,10L18,13.5L18,16.5L18,19.5ZM17,19.5L17,16.5L17,13.5L17,10.5L17.5,10.5L17.5,11L14.5,11L14.5,10.5L15,10.5L15,13.5L15,16.5L15,19.5L15,22.5L14.5,22.5L14.5,22L17.5,22L17.5,22.5L17,22.5L17,19.5Z" transform="matrix(0,0.9999999403953552,-0.9999999403953552,0,24.99999937415123,-3.9999991357326508)" fill="#000000" fill-opacity="1"/></g></g></g></g></g></svg>